<svg width="82" height="31" fill="none" xmlns="http://www.w3.org/2000/svg"><path fill-rule="evenodd" clip-rule="evenodd" d="M81.458 12.085c-.367-1.169-.877-2.226-1.594-3.148-.718-.923-1.594-1.59-2.63-2.091a4.689 4.689 0 00-.957-.398s-.112-.064-.215-.064c-.048 0-.104 0-.16-.055-.04 0-.095 0-.095-.056l-.757-.159a9.49 9.49 0 00-2.105-.095c-1.227.055-2.311.318-3.267.763a8.036 8.036 0 00-2.63 2.083c-.718.922-1.228 1.932-1.595 3.156-.35 1.161-.51 2.481-.51 3.801 0 1.376.16 2.648.518 3.816a10.278 10.278 0 001.594 3.101 8.496 8.496 0 001.754 1.574c.303.207.558.358.877.51h.04s.047 0 .047.047c.034 0 .05.016.065.03.013.014.025.026.047.026.518.254 1.084.397 1.697.509 1.794.35 3.332.103 3.332.103.821-.104 1.594-.358 2.312-.668a7.773 7.773 0 002.67-2.083c.717-.859 1.227-1.932 1.594-3.1.35-1.17.51-2.442.51-3.817 0-1.368-.207-2.64-.518-3.817l-.024.032zm-12.012 1.113c.208-.795.463-1.566.821-2.178.359-.604.821-1.113 1.331-1.463A3.13 3.13 0 0173.392 9c.67 0 1.235.143 1.753.501.51.35.917.795 1.276 1.368.358.612.621 1.272.82 2.083.216.81.32 1.63.32 2.544v.302c0 .914-.104 1.829-.256 2.64-.207.819-.462 1.526-.82 2.146A4.486 4.486 0 0175.144 22c-.51.358-1.116.509-1.793.509-.67 0-1.275-.16-1.793-.51a4.38 4.38 0 01-1.34-1.43c-.366-.605-.621-1.312-.828-2.131-.2-.811-.256-1.726-.256-2.64.056-.874.16-1.78.32-2.592l-.009-.008zM58.2 25.713l-1.993 2.282L56 28.2l.207 2.8h3.077l3.236-3.61V15.91l-.096-.875-4.224 2.178v8.5z" fill="#fff"/><path fill-rule="evenodd" clip-rule="evenodd" d="M32.279 5.222l-2.013-2.218L30 2.815 30.21 0l3.1.047 3.334 3.57v11.616l-.097.645-4.268-2.202V5.222zm28.57 3.122c.726.912 1.241 1.958 1.612 3.114l.016-.031c.362 1.163.523 2.422.523 3.774 0 1.36-.161 2.62-.515 3.775-.37 1.156-.886 2.218-1.61 3.067a7.756 7.756 0 01-2.699 2.06c-.724.307-1.505.559-2.335.661 0 0-1.554.244-3.366-.102-.62-.11-1.192-.252-1.707-.503-.03 0-.043-.015-.057-.03-.012-.013-.024-.026-.048-.026 0-.047-.056-.047-.056-.047h-.04a6.204 6.204 0 01-.886-.503 8.737 8.737 0 01-1.772-1.557 10.09 10.09 0 01-1.61-3.067c-.355-1.156-.516-2.414-.516-3.775 0-1.305.153-2.61.508-3.759.37-1.211.885-2.21 1.61-3.122a8.092 8.092 0 012.658-2.06c.966-.44 2.061-.7 3.301-.755a9.81 9.81 0 012.126.094l.765.157c0 .055.056.055.097.055a.211.211 0 00.16.055.53.53 0 01.218.063c.306.079.669.236.967.394 1.046.495 1.932 1.156 2.657 2.068zm-9.646 2.06c-.363.606-.62 1.369-.822 2.155l.008.008c-.206.792-.264 1.676-.32 2.53l-.002.034c0 .904.049 1.808.258 2.61.21.81.467 1.51.83 2.108a4.442 4.442 0 001.344 1.416c.524.346 1.144.503 1.828.503.669 0 1.297-.15 1.812-.503a4.433 4.433 0 001.337-1.4c.362-.614.628-1.314.83-2.124.16-.802.273-1.706.273-2.61v-.3c0-.904-.113-1.714-.322-2.516-.21-.802-.467-1.455-.83-2.06a4.574 4.574 0 00-1.288-1.353c-.523-.354-1.095-.495-1.772-.495a3.15 3.15 0 00-1.811.55c-.524.346-.99.85-1.353 1.447zm-12.24-4.868h4.348V25h-4.348V5.536z" fill="#fff"/><path fill-rule="evenodd" clip-rule="evenodd" d="M41.007 1a2 2 0 00-1.994 2.005c0 1.162.893 2.053 1.994 2.004A2 2 0 0043 3.005 2 2 0 0041.007 1zM14.926 9.171c.718.93 1.228 1.997 1.595 3.176l.016-.032c.358 1.187.518 2.47.518 3.849 0 1.387-.16 2.67-.51 3.849-.367 1.179-.878 2.261-1.595 3.127a7.71 7.71 0 01-2.671 2.101c-.718.313-1.491.57-2.312.674 0 0-1.54.248-3.333-.104-.614-.113-1.18-.257-1.699-.514-.047 0-.047 0-.095-.056 0-.048-.056-.048-.056-.048h-.04a6.096 6.096 0 01-.877-.513 8.736 8.736 0 01-1.754-1.588c-.718-.882-1.228-1.9-1.595-3.127C.16 18.786 0 17.503 0 16.115c0-1.33.16-2.661.51-3.832.367-1.235.877-2.254 1.595-3.184A8.05 8.05 0 014.736 7c.957-.45 2.041-.714 3.27-.77.828-.049 1.546 0 2.104.096l.758.16c0 .056.055.056.095.056.064.056.112.056.16.056.103 0 .215.064.215.064.303.08.662.241.957.401 1.036.506 1.913 1.18 2.631 2.11zm21.057 3.176c-.366-1.179-.877-2.245-1.594-3.176-.718-.93-1.595-1.603-2.631-2.109a4.671 4.671 0 00-.957-.4s-.112-.065-.215-.065c-.048 0-.104 0-.16-.056-.048 0-.096 0-.096-.056l-.765-.16a9.352 9.352 0 00-2.097-.097c-1.228.057-2.312.321-3.269.77A8.049 8.049 0 0021.568 9.1c-.718.93-1.228 1.949-1.595 3.184-.35 1.17-.51 2.502-.51 3.833 0 1.387.16 2.67.518 3.849a10.22 10.22 0 001.595 3.127 8.525 8.525 0 001.754 1.588c.303.209.917.513.917.513s.048 0 .048.048c.034 0 .05.017.064.031.013.013.025.026.047.026.518.256 1.077.4 1.699.513 1.794.352 3.332.104 3.332.104.822-.104 1.595-.36 2.313-.674a7.784 7.784 0 002.67-2.1c.718-.867 1.229-1.95 1.595-3.128.351-1.179.503-2.462.503-3.85 0-1.378-.2-2.661-.51-3.848l-.025.032zM23.968 13.47c.207-.802.462-1.58.821-2.198.359-.61.821-1.122 1.331-1.475a3.114 3.114 0 011.794-.562c.67 0 1.236.145 1.755.506.51.353.917.802 1.275 1.379.36.617.614 1.283.822 2.1.215.819.319 1.645.319 2.567v.305c0 .922-.104 1.844-.256 2.662-.207.826-.462 1.54-.82 2.165a4.509 4.509 0 01-1.34 1.427c-.51.361-1.117.514-1.794.514-.67 0-1.276-.16-1.794-.514a4.404 4.404 0 01-1.34-1.443c-.367-.61-.622-1.323-.83-2.149-.198-.818-.254-1.74-.254-2.662.056-.882.16-1.796.319-2.614l-.008-.008zm-19.407 0c.2-.802.454-1.58.813-2.198.359-.61.821-1.122 1.34-1.475a3.06 3.06 0 011.794-.562c.67 0 1.235.145 1.754.506.502.353.917.802 1.275 1.379.36.617.614 1.283.822 2.1.207.819.319 1.645.319 2.567l-.016.305c0 .922-.096 1.844-.256 2.662-.199.826-.462 1.54-.82 2.165a4.466 4.466 0 01-1.324 1.427c-.51.361-1.133.514-1.794.514-.678 0-1.292-.16-1.81-.514a4.47 4.47 0 01-1.332-1.443c-.319-.505-.558-1.219-.773-2.085-.208-.826-.263-1.764-.263-2.678 0-.922.055-1.845.255-2.663l.016-.008z" fill="#fff"/></svg>